<?xml version="1.0" encoding="UTF-8" standalone="no"?>
<!-- Created with Inkscape (http://www.inkscape.org/) -->

<svg
   version="1.1"
   id="svg2"
   width="933.94666"
   height="579.02667"
   viewBox="0 0 933.94666 579.02667"
   sodipodi:docname="3125990.eps"
   xmlns:inkscape="http://www.inkscape.org/namespaces/inkscape"
   xmlns:sodipodi="http://sodipodi.sourceforge.net/DTD/sodipodi-0.dtd"
   xmlns="http://www.w3.org/2000/svg"
   xmlns:svg="http://www.w3.org/2000/svg">
  <defs
     id="defs6" />
  <sodipodi:namedview
     id="namedview4"
     pagecolor="#ffffff"
     bordercolor="#000000"
     borderopacity="0.25"
     inkscape:showpageshadow="2"
     inkscape:pageopacity="0.0"
     inkscape:pagecheckerboard="0"
     inkscape:deskcolor="#d1d1d1" />
  <g
     id="g8"
     inkscape:groupmode="layer"
     inkscape:label="ink_ext_XXXXXX"
     transform="matrix(1.3333333,0,0,-1.3333333,0,579.02667)">
    <g
       id="g10"
       transform="scale(0.1)">
      <path
         d="M 1420.21,1822.34 H 224.41 v 2148.17 h 1195.8 V 1822.34"
         style="fill:#e7e8e5;fill-opacity:1;fill-rule:nonzero;stroke:none"
         id="path12" />
      <path
         d="M 1360.11,1886.32 H 272.195 V 3908.21 H 1360.11 V 1886.32"
         style="fill:#fafaf9;fill-opacity:1;fill-rule:nonzero;stroke:none"
         id="path14" />
      <path
         d="M 1360.11,3884.4 272.195,2500.52 V 3908.21 H 1360.11 v -23.81"
         style="fill:#f3f2f1;fill-opacity:1;fill-rule:nonzero;stroke:none"
         id="path16" />
      <path
         d="M 1383.74,3305.05 H 272.195 v 21.53 H 1383.74 v -21.53"
         style="fill:#e7e8e5;fill-opacity:1;fill-rule:nonzero;stroke:none"
         id="path18" />
      <path
         d="M 1383.74,2823.56 H 272.195 v 21.53 H 1383.74 v -21.53"
         style="fill:#e7e8e5;fill-opacity:1;fill-rule:nonzero;stroke:none"
         id="path20" />
      <path
         d="M 1383.74,2342.07 H 272.195 v 21.52 H 1383.74 v -21.52"
         style="fill:#e7e8e5;fill-opacity:1;fill-rule:nonzero;stroke:none"
         id="path22" />
      <path
         d="M 843.637,3315.81 V 1829 h -54.965 v 1486.81 h 54.965"
         style="fill:#e7e8e5;fill-opacity:1;fill-rule:nonzero;stroke:none"
         id="path24" />
      <path
         d="M 506.578,3315.81 H 481.68 v 592.4 h 24.898 v -592.4"
         style="fill:#e7e8e5;fill-opacity:1;fill-rule:nonzero;stroke:none"
         id="path26" />
      <path
         d="m 721.34,3315.81 h -24.899 v 592.4 h 24.899 v -592.4"
         style="fill:#e7e8e5;fill-opacity:1;fill-rule:nonzero;stroke:none"
         id="path28" />
      <path
         d="m 936.105,3315.81 h -24.902 v 592.4 h 24.902 v -592.4"
         style="fill:#e7e8e5;fill-opacity:1;fill-rule:nonzero;stroke:none"
         id="path30" />
      <path
         d="m 1150.87,3315.81 h -24.9 v 592.4 h 24.9 v -592.4"
         style="fill:#e7e8e5;fill-opacity:1;fill-rule:nonzero;stroke:none"
         id="path32" />
      <path
         d="m 224.41,1809.04 h -50.578 v 2197.9 h 50.578 v -2197.9"
         style="fill:#f3f2f1;fill-opacity:1;fill-rule:nonzero;stroke:none"
         id="path34" />
      <path
         d="m 1470.79,1802.97 -50.58,19.37 v 2184.6 h 50.58 V 1802.97"
         style="fill:#dadbd8;fill-opacity:1;fill-rule:nonzero;stroke:none"
         id="path36" />
      <path
         d="M 1470.79,3970.51 H 173.832 v 58.62 H 1470.79 v -58.62"
         style="fill:#dadbd8;fill-opacity:1;fill-rule:nonzero;stroke:none"
         id="path38" />
      <path
         d="M 1505.03,1741.14 H 137.953 v 54.6 H 1505.03 v -54.6"
         style="fill:#dadbd8;fill-opacity:1;fill-rule:nonzero;stroke:none"
         id="path40" />
      <path
         d="m 1420.21,1822.34 84.82,-26.6 H 137.953 l 86.457,26.6 h 1195.8"
         style="fill:#e7e8e5;fill-opacity:1;fill-rule:nonzero;stroke:none"
         id="path42" />
      <path
         d="m 6564.05,2631.38 c 0,0 -84.52,6.09 -76.74,-183.52 7.79,-189.6 27.13,-290.59 27.13,-290.59 0,0 -2.49,-42.04 -35.05,-33.79 -32.56,8.25 -93.81,49.17 -124.06,18.58 -31.38,-31.72 -20.22,-80.37 21.4,-137.67 41.62,-57.31 128.18,-186.2 135.96,-197.88 7.64,-11.48 10.72,-32.98 -12.37,-30.91 -23.09,2.06 -178.87,54.86 -199.5,-20.56 -20.63,-75.43 121.53,-216.01 136.78,-231.69 15.25,-15.66 16.07,-25.55 9.89,-35.03 -6.19,-9.48 -56.89,13.21 -101.81,26.41 -44.92,13.2 -99.33,20.63 -107.59,-23.88 -8.25,-44.52 54.37,-174.78 288.86,-311.69 l 112.81,-56.32 106.77,68.1 c 219.63,159.68 268.9,295.56 256.23,339.02 -12.66,43.46 -66.05,30.63 -109.43,12.99 -43.38,-17.62 -91.55,-45.26 -98.65,-36.45 -7.1,8.82 -7.27,18.74 6.32,35.85 13.61,17.12 141,171.22 112.93,244.21 -28.07,72.97 -177.8,4.85 -200.55,0.49 -22.77,-4.37 -21.87,17.34 -15.41,29.52 6.58,12.4 79.81,149.31 115.48,210.48 35.68,61.19 41.92,110.71 7.52,139.13 -33.15,27.41 -90.01,-19.43 -121.58,-30.89 -31.56,-11.48 -38.24,30.1 -38.24,30.1 0,0 9.14,102.43 -2.08,291.86 -11.22,189.43 -96.74,174.13 -96.74,174.13"
         style="fill:#e7e8e5;fill-opacity:1;fill-rule:nonzero;stroke:none"
         id="path44" />
      <path
         d="m 6570.73,2461.57 c 0,0 0.22,-1.34 0.45,-3.95 0.21,-2.81 0.52,-6.68 0.9,-11.65 0.71,-10.43 1.73,-25.48 3.03,-44.77 2.59,-38.89 5.92,-95.18 9.76,-164.76 7.73,-139.15 16.78,-331.47 26.06,-543.89 9.27,-212.49 17.83,-404.82 24.78,-544 3.54,-69.45 6.4,-125.71 8.39,-164.82 0.96,-19.3 1.71,-34.359 2.23,-44.808 0.19,-4.973 0.35,-8.852 0.46,-11.66 0.08,-2.633 0.01,-3.992 0.01,-3.992 0,0 -0.22,1.339 -0.45,3.96 -0.21,2.809 -0.51,6.668 -0.89,11.641 -0.72,10.438 -1.73,25.481 -3.04,44.77 -2.59,38.879 -5.92,95.169 -9.76,164.749 -7.73,139.15 -16.77,331.48 -26.05,543.98 -9.28,212.42 -17.83,404.73 -24.79,543.91 -3.53,69.45 -6.39,125.71 -8.38,164.82 -0.96,19.31 -1.71,34.37 -2.23,44.82 -0.2,4.98 -0.35,8.85 -0.47,11.67 -0.08,2.63 -0.01,3.98 -0.01,3.98"
         style="fill:#dadbd8;fill-opacity:1;fill-rule:nonzero;stroke:none"
         id="path46" />
      <path
         d="m 6438.71,2081.38 c 0.21,0.21 2.69,-1.88 7.02,-5.84 4.34,-3.95 10.43,-9.84 17.89,-17.2 14.89,-14.74 34.91,-35.65 56.57,-59.14 21.19,-23.19 40.35,-44.16 55.18,-60.37 6.58,-7.15 12.19,-13.22 16.79,-18.21 3.98,-4.29 6.08,-6.77 5.87,-6.98 -0.2,-0.22 -2.7,1.85 -7.06,5.79 -4.33,3.95 -10.44,9.85 -17.82,17.29 -14.74,14.9 -34.48,36.07 -56.13,59.54 -21.35,23.03 -40.66,43.85 -55.59,59.95 -6.63,7.11 -12.26,13.17 -16.89,18.14 -3.96,4.32 -6.04,6.82 -5.83,7.03"
         style="fill:#dadbd8;fill-opacity:1;fill-rule:nonzero;stroke:none"
         id="path48" />
      <path
         d="m 6609.23,1917.37 c -0.85,0.83 40.41,44.04 92.13,96.48 51.75,52.46 94.38,94.3 95.23,93.47 0.85,-0.84 -40.4,-44.04 -92.15,-96.51 -51.73,-52.44 -94.36,-94.28 -95.21,-93.44"
         style="fill:#dadbd8;fill-opacity:1;fill-rule:nonzero;stroke:none"
         id="path50" />
      <path
         d="m 6608.77,1590.45 c -0.14,0.28 2.66,2.04 7.86,5.01 6.02,3.38 13.39,7.51 22.06,12.38 18.62,10.46 44.29,25 72.02,42.06 27.79,16.99 52.42,33.23 70.17,45.11 8.27,5.52 15.3,10.21 21.04,14.05 5,3.28 7.84,4.98 8.02,4.73 0.17,-0.23 -2.34,-2.4 -7.03,-6.1 -4.71,-3.7 -11.61,-8.93 -20.3,-15.19 -17.32,-12.55 -41.76,-29.24 -69.63,-46.29 -27.84,-17.11 -53.82,-31.27 -72.85,-41.06 -9.53,-4.85 -17.29,-8.69 -22.73,-11.18 -5.44,-2.51 -8.51,-3.78 -8.63,-3.52"
         style="fill:#dadbd8;fill-opacity:1;fill-rule:nonzero;stroke:none"
         id="path52" />
      <path
         d="m 6421.87,1704.86 c 0.16,0.26 2.93,-1.06 7.81,-3.67 4.88,-2.59 11.86,-6.48 20.44,-11.35 17.18,-9.77 40.76,-23.5 66.65,-38.9 25.91,-15.41 49.24,-29.57 66.01,-39.99 8.39,-5.22 15.14,-9.5 19.76,-12.55 4.61,-3.05 7.09,-4.85 6.93,-5.11 -0.15,-0.25 -2.92,1.07 -7.79,3.67 -4.89,2.59 -11.87,6.48 -20.46,11.36 -17.17,9.76 -40.74,23.5 -66.65,38.9 -25.9,15.41 -49.23,29.56 -66,39.99 -8.39,5.22 -15.13,9.5 -19.75,12.54 -4.61,3.05 -7.09,4.85 -6.95,5.11"
         style="fill:#dadbd8;fill-opacity:1;fill-rule:nonzero;stroke:none"
         id="path54" />
      <path
         d="m 6384.8,1416.31 c 0.15,0.27 3.67,-1.46 9.92,-4.79 6.96,-3.84 15.76,-8.69 26.26,-14.49 22.07,-12.39 52.42,-29.77 85.8,-49.19 33.39,-19.43 63.5,-37.22 85.18,-50.3 10.23,-6.26 18.8,-11.51 25.57,-15.66 5.98,-3.78 9.22,-6 9.07,-6.25 -0.15,-0.27 -3.67,1.46 -9.92,4.79 -6.95,3.84 -15.75,8.69 -26.25,14.49 -22.08,12.39 -52.43,29.77 -85.82,49.19 -33.38,19.43 -63.48,37.22 -85.17,50.29 -10.22,6.27 -18.8,11.52 -25.57,15.67 -5.98,3.78 -9.22,6 -9.07,6.25"
         style="fill:#dadbd8;fill-opacity:1;fill-rule:nonzero;stroke:none"
         id="path56" />
      <path
         d="m 6621.77,1280.62 c -0.15,0.25 3.35,2.59 9.8,6.57 7.18,4.37 16.39,9.97 27.42,16.69 23.15,14.1 55.05,33.68 89.66,56.27 34.67,22.54 65.51,43.75 87.74,59.25 10.62,7.37 19.47,13.51 26.37,18.31 6.25,4.3 9.8,6.56 9.97,6.32 0.18,-0.25 -3.03,-2.96 -8.97,-7.67 -5.95,-4.72 -14.67,-11.39 -25.58,-19.45 -21.81,-16.15 -52.44,-37.8 -87.17,-60.38 -34.68,-22.63 -66.9,-41.83 -90.47,-55.28 -11.79,-6.7 -21.4,-12.01 -28.13,-15.52 -6.72,-3.54 -10.5,-5.38 -10.64,-5.11"
         style="fill:#dadbd8;fill-opacity:1;fill-rule:nonzero;stroke:none"
         id="path58" />
      <path
         d="m 6791.32,1085.93 h -312.1 l 101.86,-771.071 h 108.37 l 101.87,771.071"
         style="fill:#dadbd8;fill-opacity:1;fill-rule:nonzero;stroke:none"
         id="path60" />
      <path
         d="m 6495.42,991.148 c -0.13,-0.078 0.34,-1.097 1.66,-2.75 1.34,-1.636 3.78,-3.769 7.53,-5.386 7.4,-3.223 20.4,-3.481 32.97,4.047 12.59,6.961 23.57,20.611 40.46,26.641 16.75,6.4 37.5,5.25 57.39,-1.14 20.12,-6.23 37.6,-16.4 53.44,-25.892 15.87,-9.438 30.41,-17.867 43.46,-23.316 12.95,-5.653 24.24,-8.262 32.05,-9.262 3.92,-0.52 6.97,-0.68 9.06,-0.621 2.08,0.011 3.16,0.09 3.17,0.261 0.17,1.032 -17.67,0.86 -42.81,12.911 -12.6,5.769 -26.76,14.379 -42.5,24.05 -15.68,9.669 -33.58,20.309 -54.36,26.739 -20.53,6.6 -42.61,7.8 -60.57,0.65 -8.98,-3.42 -16.51,-8.78 -22.8,-14.09 -6.38,-5.279 -12.08,-10.24 -17.86,-13.849 -11.42,-7.371 -23.41,-7.692 -30.4,-5.27 -7.19,2.5 -9.49,6.707 -9.89,6.277"
         style="fill:#f3f2f1;fill-opacity:1;fill-rule:nonzero;stroke:none"
         id="path62" />
      <path
         d="m 6506.8,849.129 c 0.42,-0.258 2.47,3.18 7.36,8.281 4.96,4.949 13.1,11.418 24.92,15.809 11.71,4.492 26.76,7.152 43.4,6.531 16.72,-0.582 34.94,-4.25 54.31,-7.391 19.34,-3.257 38.49,-4.711 55.61,-2.32 17.1,2.199 31.96,7.129 43.75,12.5 11.82,5.391 20.56,11.289 26.31,15.641 5.76,4.359 8.5,7.3 8.33,7.5 -0.59,0.851 -12.64,-9.942 -36.09,-19.84 -11.69,-4.828 -26.25,-9.262 -42.87,-11.141 -16.62,-2.058 -35.01,-0.539 -54.23,2.68 -19.21,3.121 -37.73,6.723 -54.98,7.062 -17.27,0.387 -32.84,-2.761 -44.89,-7.882 -12.16,-5.008 -20.38,-12.289 -25.05,-17.829 -2.24,-2.878 -3.87,-5.179 -4.71,-6.91 -0.92,-1.679 -1.32,-2.601 -1.17,-2.691"
         style="fill:#f3f2f1;fill-opacity:1;fill-rule:nonzero;stroke:none"
         id="path64" />
      <path
         d="m 6755.95,773.109 c 0.12,0.219 -2.76,2.18 -8.59,4.461 -5.81,2.301 -14.68,4.649 -25.87,5.551 -11.17,0.891 -24.57,0.16 -39.1,-2.242 -14.56,-2.359 -30.16,-6.367 -46.54,-9.848 -16.37,-3.461 -32.17,-5.781 -46.48,-5.261 -14.3,0.5 -27.02,3.628 -36.89,7.98 -20.09,8.82 -27.24,21.648 -27.99,20.84 -0.2,-0.11 1.22,-3.332 5.28,-8.149 4.02,-4.812 11.04,-10.941 21.18,-15.953 10.13,-4.976 23.32,-8.617 38.22,-9.398 14.92,-0.809 31.16,1.461 47.72,4.949 16.57,3.52 32.06,7.652 46.3,10.211 14.23,2.621 27.22,3.68 38.1,3.27 21.9,-0.731 34.35,-7.352 34.66,-6.411"
         style="fill:#f3f2f1;fill-opacity:1;fill-rule:nonzero;stroke:none"
         id="path66" />
      <path
         d="m 6534.38,666.168 c 0.15,-0.828 11.14,6.941 30.3,3.051 9.39,-1.699 19.89,-6.449 31.7,-11.809 11.76,-5.492 25.94,-10.18 41.15,-11.351 30.66,-2.938 57.94,6.961 74.66,17.3 8.57,5.082 14.54,10.551 18.58,14.289 3.8,4.043 5.75,6.372 5.5,6.614 -0.69,0.746 -8.89,-8.481 -25.88,-17.782 -16.71,-9.25 -43.04,-18.179 -72.4,-15.339 -29.55,1.679 -52.23,19.3 -72.72,21.64 -9.98,1.489 -18.33,0.059 -23.53,-2.043 -5.29,-2.058 -7.51,-4.386 -7.36,-4.57"
         style="fill:#f3f2f1;fill-opacity:1;fill-rule:nonzero;stroke:none"
         id="path68" />
      <path
         d="m 6551.77,518.168 c -0.01,-0.59 10.46,-0.52 26.01,5.16 15.69,5.25 35.11,17.281 57.78,26.281 11.38,4.34 22.8,7.012 33.17,6.961 10.38,-0.05 19.65,-2.59 26.67,-6.09 14.33,-7.14 18.48,-17.281 19.28,-16.64 0.22,0.101 -0.41,2.648 -2.96,6.578 -2.52,3.922 -7.31,9.031 -14.63,13.242 -7.3,4.168 -17.12,7.27 -28.28,7.59 -11.21,0.328 -23.27,-2.391 -35.05,-6.871 -23.5,-9.371 -42.31,-21.75 -57.29,-27.688 -14.8,-6.382 -24.82,-7.703 -24.7,-8.523"
         style="fill:#f3f2f1;fill-opacity:1;fill-rule:nonzero;stroke:none"
         id="path70" />
      <path
         d="m 6567.07,449.309 c -0.17,-0.629 7.3,-3.329 19.75,-6.418 12.45,-3.09 29.91,-6.391 49.4,-8.332 19.51,-1.887 37.27,-2.059 50.08,-1.438 12.81,0.598 20.67,1.789 20.63,2.438 -0.08,1.543 -31.63,0.203 -70.21,4.082 -38.59,3.687 -69.28,11.16 -69.65,9.668"
         style="fill:#f3f2f1;fill-opacity:1;fill-rule:nonzero;stroke:none"
         id="path72" />
      <path
         d="m 6614.19,3248.59 h -963.64 v 633.56 h 963.64 v -633.56"
         style="fill:#dadbd8;fill-opacity:1;fill-rule:nonzero;stroke:none"
         id="path74" />
      <path
         d="m 6580.16,3276.92 h -896.09 v 579.32 h 896.09 v -579.32"
         style="fill:#fafaf9;fill-opacity:1;fill-rule:nonzero;stroke:none"
         id="path76" />
      <path
         d="m 6278.28,3485.66 h -292.33 v 159.41 h 292.33 v -159.41"
         style="fill:#dadbd8;fill-opacity:1;fill-rule:nonzero;stroke:none"
         id="path78" />
      <path
         d="m 6884.97,304.641 c 0,-1.43 -1541.38,-2.602 -3442.33,-2.602 -1901.6,0 -3442.64390625,1.172 -3442.64390625,2.602 0,1.449 1541.04390625,2.609 3442.64390625,2.609 1900.95,0 3442.33,-1.16 3442.33,-2.609"
         style="fill:#17282f;fill-opacity:1;fill-rule:nonzero;stroke:none"
         id="path80" />
      <path
         d="M 4494.82,2215.13 H 2593.44 V 4342.7 H 4657.02 V 2377.34 c 0,-89.58 -72.63,-162.21 -162.2,-162.21"
         style="fill:#e7e8e5;fill-opacity:1;fill-rule:nonzero;stroke:none"
         id="path82" />
      <path
         d="m 4486.61,3709.5 c 0,-4.32 -372.98,-7.82 -832.96,-7.82 -460.14,0 -833.04,3.5 -833.04,7.82 0,4.31 372.9,7.8 833.04,7.8 459.98,0 832.96,-3.49 832.96,-7.8"
         style="fill:#33535f;fill-opacity:1;fill-rule:nonzero;stroke:none"
         id="path84" />
      <path
         d="m 3663.5,3565.37 c 0,-4.32 -184.26,-7.81 -411.52,-7.81 -227.34,0 -411.57,3.49 -411.57,7.81 0,4.31 184.23,7.81 411.57,7.81 227.26,0 411.52,-3.5 411.52,-7.81"
         style="fill:#33535f;fill-opacity:1;fill-rule:nonzero;stroke:none"
         id="path86" />
      <path
         d="m 3992.75,3578.72 c 0,-4.32 -48.81,-7.81 -109,-7.81 -60.22,0 -109.02,3.49 -109.02,7.81 0,4.31 48.8,7.81 109.02,7.81 60.19,0 109,-3.5 109,-7.81"
         style="fill:#33535f;fill-opacity:1;fill-rule:nonzero;stroke:none"
         id="path88" />
      <path
         d="m 4531.1,3587.61 c 0,-4.31 -96.62,-7.81 -215.78,-7.81 -119.19,0 -215.79,3.5 -215.79,7.81 0,4.32 96.6,7.82 215.79,7.82 119.16,0 215.78,-3.5 215.78,-7.82"
         style="fill:#33535f;fill-opacity:1;fill-rule:nonzero;stroke:none"
         id="path90" />
      <path
         d="m 3594.77,3427.45 c 0,-4.32 -173.31,-7.82 -387.06,-7.82 -213.82,0 -387.1,3.5 -387.1,7.82 0,4.31 173.28,7.81 387.1,7.81 213.75,0 387.06,-3.5 387.06,-7.81"
         style="fill:#33535f;fill-opacity:1;fill-rule:nonzero;stroke:none"
         id="path92" />
      <path
         d="m 4531.1,3431.42 c 0,-4.32 -189.26,-7.81 -422.65,-7.81 -233.48,0 -422.7,3.49 -422.7,7.81 0,4.31 189.22,7.81 422.7,7.81 233.39,0 422.65,-3.5 422.65,-7.81"
         style="fill:#33535f;fill-opacity:1;fill-rule:nonzero;stroke:none"
         id="path94" />
      <path
         d="m 4531.1,3292.63 c 0,-4.32 -84.27,-7.81 -188.18,-7.81 -103.96,0 -188.21,3.49 -188.21,7.81 0,4.31 84.25,7.81 188.21,7.81 103.91,0 188.18,-3.5 188.18,-7.81"
         style="fill:#33535f;fill-opacity:1;fill-rule:nonzero;stroke:none"
         id="path96" />
      <path
         d="m 3752.47,3863.98 c 0,-4.32 -204.19,-7.81 -456.01,-7.81 -251.91,0 -456.05,3.49 -456.05,7.81 0,4.31 204.14,7.81 456.05,7.81 251.82,0 456.01,-3.5 456.01,-7.81"
         style="fill:#f03d5f;fill-opacity:1;fill-rule:nonzero;stroke:none"
         id="path98" />
      <path
         d="M 5021.12,316.289 H 1025.81 c -80.451,0 -145.669,65.231 -145.669,145.68 V 3005.34 c 0,80.45 65.218,145.67 145.669,145.67 h 3995.31 c 80.45,0 145.68,-65.22 145.68,-145.67 V 461.969 c 0,-80.449 -65.23,-145.68 -145.68,-145.68"
         style="fill:#17282f;fill-opacity:1;fill-rule:nonzero;stroke:none"
         id="path100" />
      <path
         d="M 5173.15,277.91 H 884.848 c -98.293,0 -177.973,79.692 -177.973,177.981 v 70.058 H 5351.13 v -70.058 c 0,-98.289 -79.68,-177.981 -177.98,-177.981"
         style="fill:#17282f;fill-opacity:1;fill-rule:nonzero;stroke:none"
         id="path102" />
      <path
         d="m 1001.2,644.512 h 4044.53 v 2393.88 H 1001.2 Z"
         style="fill:#33535f;fill-opacity:1;fill-rule:nonzero;stroke:none"
         id="path104" />
      <path
         d="m 2606.88,525.949 c -0.08,0.051 1.43,0.09 4.47,0.141 3.29,0.031 7.8,0.078 13.59,0.129 12.32,0.07 30.06,0.172 52.82,0.301 46.42,0.191 113.24,0.468 195.97,0.8 166.8,0.36 397.69,0.848 655.24,1.399 l 4.84,0.011 -2.44,-4.179 c -8.25,-14.133 -17.1,-29.289 -26.01,-44.563 -9.34,-15.988 -18.62,-31.886 -27.5,-47.109 l -0.81,-1.367 h -1.59 c -356.37,0.668 -660.73,1.238 -810.95,1.519 h -0.7 l -0.36,0.59 c -18.48,30.047 -32.71,53.188 -42.47,69.059 -4.6,7.55 -8.15,13.359 -10.67,17.492 -2.37,3.898 -3.43,5.777 -3.43,5.777 0,0 1.45,-2.097 4.03,-6.058 2.68,-4.153 6.45,-9.973 11.34,-17.539 9.96,-15.493 24.47,-38.071 43.32,-67.411 l -1.06,0.59 c 150.22,0.278 454.58,0.86 810.95,1.52 l -2.4,-1.371 c 8.89,15.218 18.17,31.109 27.5,47.121 8.92,15.25 17.77,30.429 26.02,44.551 l 2.39,-4.172 c -256.5,0.55 -486.45,1.039 -652.56,1.398 -83.13,0.34 -150.26,0.613 -196.9,0.801 -23.1,0.133 -41.12,0.23 -53.63,0.301 -5.98,0.058 -10.65,0.101 -14.05,0.129 -3.19,0.05 -4.95,0.14 -4.95,0.14"
         style="fill:#33535f;fill-opacity:1;fill-rule:nonzero;stroke:none"
         id="path106" />
      <path
         d="M 880.141,525.949 H 5166.8"
         style="fill:#17282f;fill-opacity:1;fill-rule:nonzero;stroke:none"
         id="path108" />
      <path
         d="m 5166.8,525.949 c 0,-1.437 -959.68,-2.609 -2143.23,-2.609 -1183.96,0 -2143.429,1.172 -2143.429,2.609 0,1.442 959.469,2.61 2143.429,2.61 1183.55,0 2143.23,-1.168 2143.23,-2.61"
         style="fill:#33535f;fill-opacity:1;fill-rule:nonzero;stroke:none"
         id="path110" />
      <path
         d="m 4072.79,3516.47 v 0 c 66.13,0 119.75,-53.61 119.75,-119.74 v -245.72 h -358.07 v 226.69 c 0,76.64 62.14,138.77 138.78,138.77 h 99.54"
         style="fill:#17282f;fill-opacity:1;fill-rule:nonzero;stroke:none"
         id="path112" />
      <path
         d="m 4072.79,3516.47 c 0,-1.44 -337.84,-2.31 -754.49,-1.94 -416.79,0.36 -754.55,1.83 -754.55,3.27 0,1.43 337.77,2.3 754.56,1.94 416.65,-0.37 754.48,-1.83 754.48,-3.27"
         style="fill:#17282f;fill-opacity:1;fill-rule:nonzero;stroke:none"
         id="path114" />
      <path
         d="m 4069.65,3516.77 -149.32,1.03 -216.91,-1.33 H 2110.01 c -135.31,0 -244.99,-109.68 -244.99,-244.99 V 684.02 638.758 H 3928.59 V 3382.16 c 6.06,134.31 141.06,134.61 141.06,134.61"
         style="fill:#fafaf9;fill-opacity:1;fill-rule:nonzero;stroke:none"
         id="path116" />
      <path
         d="m 4069.65,3516.77 c -15.41,-0.54 -30.69,-3.52 -45.38,-8.07 -14.75,-4.48 -28.8,-11.29 -41.35,-20.16 -25.83,-17.18 -42.8,-45.35 -49.48,-75.22 -2.32,-7.37 -2.59,-15.12 -3.52,-22.74 -1.17,-7.62 -0.87,-15.35 -0.87,-23.06 l 0.09,-46.25 0.18,-92.5 0.73,-370.02 1.18,-740.01 1,-1479.982 v -3.629 h -3.64 l -2063.57,-1.34 h -4.97 v 4.969 l 1.67,2488.552 c 0.29,51.9 -0.51,103.56 0.67,155.67 0.14,13.16 2.61,26.1 4.64,39.06 l 4.91,19.07 c 1.46,6.42 4.29,12.4 6.38,18.62 9.48,24.43 22.43,47.63 39.07,67.97 33.35,40.41 79.21,70.96 130.28,83.55 12.6,3.76 25.71,5.2 38.68,7 13.11,0.69 26.23,1.43 39.13,1.16 l 77.77,-0.05 622.13,-0.47 1244.27,-2.12 m 0,0 -1244.26,-2.72 -622.14,-0.47 -77.77,-0.05 c -13.03,0.25 -25.79,-0.51 -38.57,-1.19 -12.66,-1.79 -25.45,-3.19 -37.73,-6.88 -49.82,-12.35 -94.5,-42.23 -126.99,-81.66 -16.2,-19.86 -28.77,-42.5 -37.99,-66.32 -2.01,-6.06 -4.79,-11.89 -6.19,-18.14 l -4.76,-18.59 c -1.95,-12.63 -4.36,-25.24 -4.46,-38.07 -1.1,-51.52 -0.24,-103.6 -0.46,-155.37 l 1.67,-2488.552 -4.98,4.972 2063.57,-1.332 -3.63,-3.64 0.99,1480.052 1.2,740 0.72,369.99 0.18,92.5 0.09,46.24 c 0.03,7.71 -0.23,15.42 0.97,23.1 0.96,7.66 1.27,15.44 3.63,22.85 6.83,29.98 24.01,58.22 49.97,75.34 12.62,8.85 26.72,15.61 41.5,20.04 14.73,4.5 30.02,7.42 45.44,7.9"
         style="fill:#17282f;fill-opacity:1;fill-rule:nonzero;stroke:none"
         id="path118" />
      <path
         d="m 2175.87,3042.79 h 360.09 l 0.58,-120.62 h -17.23 c -5.65,43.16 -21.8,72.34 -48.47,87.58 -15,8.4 -37.38,12.98 -67.18,13.77 v -315.08 c 0,-22.02 3.85,-36.63 11.54,-43.84 7.69,-7.21 23.7,-10.82 48.04,-10.82 v -15.18 h -213.19 v 15.18 c 23.36,0 38.88,3.65 46.58,10.96 7.68,7.31 11.53,21.87 11.53,43.7 v 315.08 c -29.2,-0.79 -51.59,-5.37 -67.17,-13.77 -28.62,-15.63 -44.78,-44.82 -48.47,-87.58 h -17.24 l 0.59,120.62"
         style="fill:#f03d5f;fill-opacity:1;fill-rule:nonzero;stroke:none"
         id="path120" />
      <path
         d="m 3645.43,3015.59 c 0,-4.32 -198.64,-7.81 -443.62,-7.81 -245.06,0 -443.66,3.49 -443.66,7.81 0,4.31 198.6,7.81 443.66,7.81 244.98,0 443.62,-3.5 443.62,-7.81"
         style="fill:#f03d5f;fill-opacity:1;fill-rule:nonzero;stroke:none"
         id="path122" />
      <path
         d="m 3119.01,2873.83 c 0,-4.32 -76.8,-7.81 -171.52,-7.81 -94.75,0 -171.54,3.49 -171.54,7.81 0,4.31 76.79,7.81 171.54,7.81 94.72,0 171.52,-3.5 171.52,-7.81"
         style="fill:#33535f;fill-opacity:1;fill-rule:nonzero;stroke:none"
         id="path124" />
      <path
         d="m 2686.61,2441.39 c 0,-4.31 -145.86,-7.81 -325.74,-7.81 -179.95,0 -325.78,3.5 -325.78,7.81 0,4.32 145.83,7.82 325.78,7.82 179.88,0 325.74,-3.5 325.74,-7.82"
         style="fill:#33535f;fill-opacity:1;fill-rule:nonzero;stroke:none"
         id="path126" />
      <path
         d="m 3424.39,2441.39 c 0,-4.31 -145.86,-7.81 -325.75,-7.81 -179.95,0 -325.77,3.5 -325.77,7.81 0,4.32 145.82,7.82 325.77,7.82 179.89,0 325.75,-3.5 325.75,-7.82"
         style="fill:#f03d5f;fill-opacity:1;fill-rule:nonzero;stroke:none"
         id="path128" />
      <path
         d="m 2686.61,2325.91 c 0,-4.32 -145.86,-7.81 -325.74,-7.81 -179.95,0 -325.78,3.49 -325.78,7.81 0,4.31 145.83,7.81 325.78,7.81 179.88,0 325.74,-3.5 325.74,-7.81"
         style="fill:#33535f;fill-opacity:1;fill-rule:nonzero;stroke:none"
         id="path130" />
      <path
         d="m 2686.61,2210.42 c 0,-4.31 -145.86,-7.81 -325.74,-7.81 -179.95,0 -325.78,3.5 -325.78,7.81 0,4.32 145.83,7.82 325.78,7.82 179.88,0 325.74,-3.5 325.74,-7.82"
         style="fill:#f03d5f;fill-opacity:1;fill-rule:nonzero;stroke:none"
         id="path132" />
      <path
         d="m 3119.01,2638.6 c 0,-4.32 -76.8,-7.82 -171.52,-7.82 -94.75,0 -171.54,3.5 -171.54,7.82 0,4.31 76.79,7.81 171.54,7.81 94.72,0 171.52,-3.5 171.52,-7.81"
         style="fill:#33535f;fill-opacity:1;fill-rule:nonzero;stroke:none"
         id="path134" />
      <path
         d="m 3713.99,2441.39 c 0,-4.31 -51.2,-7.81 -114.35,-7.81 -63.17,0 -114.36,3.5 -114.36,7.81 0,4.32 51.19,7.82 114.36,7.82 63.15,0 114.35,-3.5 114.35,-7.82"
         style="fill:#33535f;fill-opacity:1;fill-rule:nonzero;stroke:none"
         id="path136" />
      <path
         d="m 3775.18,2873.83 c 0,-4.32 -131.78,-7.81 -294.3,-7.81 -162.59,0 -294.34,3.49 -294.34,7.81 0,4.31 131.75,7.81 294.34,7.81 162.52,0 294.3,-3.5 294.3,-7.81"
         style="fill:#33535f;fill-opacity:1;fill-rule:nonzero;stroke:none"
         id="path138" />
      <path
         d="m 3748.61,2761.22 c 0,-4.32 -217.75,-7.81 -486.31,-7.81 -268.64,0 -486.35,3.49 -486.35,7.81 0,4.31 217.71,7.81 486.35,7.81 268.56,0 486.31,-3.5 486.31,-7.81"
         style="fill:#33535f;fill-opacity:1;fill-rule:nonzero;stroke:none"
         id="path140" />
      <path
         d="m 3713.99,2325.91 c 0,-4.32 -210.69,-7.81 -470.54,-7.81 -259.94,0 -470.58,3.49 -470.58,7.81 0,4.31 210.64,7.81 470.58,7.81 259.85,0 470.54,-3.5 470.54,-7.81"
         style="fill:#33535f;fill-opacity:1;fill-rule:nonzero;stroke:none"
         id="path142" />
      <path
         d="m 3713.99,1991.58 c 0,-4.32 -197.7,-7.82 -441.53,-7.82 -243.92,0 -441.58,3.5 -441.58,7.82 0,4.31 197.66,7.81 441.58,7.81 243.83,0 441.53,-3.5 441.53,-7.81"
         style="fill:#f03d5f;fill-opacity:1;fill-rule:nonzero;stroke:none"
         id="path144" />
      <path
         d="m 3713.99,1879.18 c 0,-4.31 -197.7,-7.81 -441.53,-7.81 -243.92,0 -441.58,3.5 -441.58,7.81 0,4.31 197.66,7.82 441.58,7.82 243.83,0 441.53,-3.51 441.53,-7.82"
         style="fill:#33535f;fill-opacity:1;fill-rule:nonzero;stroke:none"
         id="path146" />
      <path
         d="m 3713.99,1766.78 c 0,-4.32 -197.7,-7.81 -441.53,-7.81 -243.92,0 -441.58,3.49 -441.58,7.81 0,4.32 197.66,7.81 441.58,7.81 243.83,0 441.53,-3.49 441.53,-7.81"
         style="fill:#33535f;fill-opacity:1;fill-rule:nonzero;stroke:none"
         id="path148" />
      <path
         d="m 3713.99,1654.39 c 0,-4.32 -197.7,-7.81 -441.53,-7.81 -243.92,0 -441.58,3.49 -441.58,7.81 0,4.31 197.66,7.81 441.58,7.81 243.83,0 441.53,-3.5 441.53,-7.81"
         style="fill:#33535f;fill-opacity:1;fill-rule:nonzero;stroke:none"
         id="path150" />
      <path
         d="m 3339.28,1542 c 0,-2.16 -28.46,-4.12 -74.46,-5.53 -46,-1.42 -109.54,-2.29 -179.73,-2.29 -70.21,0 -133.76,0.87 -179.76,2.29 -46,1.41 -74.45,3.37 -74.45,5.53 0,2.14 28.45,4.1 74.45,5.51 46,1.42 109.55,2.29 179.76,2.29 70.19,0 133.73,-0.87 179.73,-2.29 46,-1.41 74.46,-3.37 74.46,-5.51"
         style="fill:#33535f;fill-opacity:1;fill-rule:nonzero;stroke:none"
         id="path152" />
      <path
         d="m 3553.98,2204.38 c 0,-4.32 -170.29,-7.81 -380.31,-7.81 -210.08,0 -380.34,3.49 -380.34,7.81 0,4.31 170.26,7.81 380.34,7.81 210.02,0 380.31,-3.5 380.31,-7.81"
         style="fill:#33535f;fill-opacity:1;fill-rule:nonzero;stroke:none"
         id="path154" />
      <path
         d="m 2671.19,1978.89 46.87,-867.59 -848.31,-106.25 -0.66,981.19 802.1,-7.35"
         style="fill:#dadbd8;fill-opacity:1;fill-rule:nonzero;stroke:none"
         id="path156" />
      <path
         d="m 2723.97,2031.65 -5.91,-920.35 -1151.2,7.4 5.91,920.36 1151.2,-7.41"
         style="fill:#f3f2f1;fill-opacity:1;fill-rule:nonzero;stroke:none"
         id="path158" />
      <path
         d="m 1606.92,1176.39 1070.32,-6.89 5.17,804.49 -1070.33,6.87 -5.16,-804.47"
         style="fill:#f03d5f;fill-opacity:1;fill-rule:nonzero;stroke:none"
         id="path160" />
      <path
         d="m 2677.24,1169.5 -1070.32,6.89 377.04,497.65 229.57,-314.35 158.13,166.24 305.58,-356.43"
         style="fill:#da314b;fill-opacity:1;fill-rule:nonzero;stroke:none"
         id="path162" />
      <path
         d="m 2229.96,1649.44 c -0.18,0 -0.36,0 -0.54,0 -46.55,0.3 -84.04,38.27 -83.74,84.82 0.3,46.36 37.98,83.73 84.28,83.73 0.18,0 0.35,0 0.54,0 46.54,-0.3 84.03,-38.27 83.73,-84.81 -0.29,-46.37 -37.98,-83.74 -84.27,-83.74"
         style="fill:#da314b;fill-opacity:1;fill-rule:nonzero;stroke:none"
         id="path164" />
      <path
         d="m 2828.92,894.141 c 0,-9.821 -7.96,-17.789 -17.79,-17.789 -9.83,0 -17.8,7.968 -17.8,17.789 0,9.839 7.97,17.808 17.8,17.808 9.83,0 17.79,-7.969 17.79,-17.808"
         style="fill:#17282f;fill-opacity:1;fill-rule:nonzero;stroke:none"
         id="path166" />
      <path
         d="m 2934.56,894.141 c 0,-9.821 -7.97,-17.789 -17.8,-17.789 -9.83,0 -17.8,7.968 -17.8,17.789 0,9.839 7.97,17.808 17.8,17.808 9.83,0 17.8,-7.969 17.8,-17.808"
         style="fill:#17282f;fill-opacity:1;fill-rule:nonzero;stroke:none"
         id="path168" />
      <path
         d="m 3040.19,894.141 c 0,-9.821 -7.97,-17.789 -17.79,-17.789 -9.83,0 -17.8,7.968 -17.8,17.789 0,9.839 7.97,17.808 17.8,17.808 9.82,0 17.79,-7.969 17.79,-17.808"
         style="fill:#17282f;fill-opacity:1;fill-rule:nonzero;stroke:none"
         id="path170" />
      <path
         d="m 3429.34,1307.78 c 0,-4.31 -145.86,-7.82 -325.74,-7.82 -179.95,0 -325.77,3.51 -325.77,7.82 0,4.31 145.82,7.81 325.77,7.81 179.88,0 325.74,-3.5 325.74,-7.81"
         style="fill:#f03d5f;fill-opacity:1;fill-rule:nonzero;stroke:none"
         id="path172" />
      <path
         d="m 3718.94,1192.3 c 0,-4.32 -210.69,-7.81 -470.53,-7.81 -259.94,0 -470.58,3.49 -470.58,7.81 0,4.3 210.64,7.81 470.58,7.81 259.84,0 470.53,-3.51 470.53,-7.81"
         style="fill:#33535f;fill-opacity:1;fill-rule:nonzero;stroke:none"
         id="path174" />
      <path
         d="m 6482.87,995.43 -3.56,-554.379 -693.43,4.449 3.56,554.391 693.43,-4.461"
         style="fill:#f3f2f1;fill-opacity:1;fill-rule:nonzero;stroke:none"
         id="path176" />
      <path
         d="m 5810.01,480.262 644.71,-4.153 3.12,484.59 -644.72,4.141 -3.11,-484.578"
         style="fill:#f03d5f;fill-opacity:1;fill-rule:nonzero;stroke:none"
         id="path178" />
      <path
         d="m 6454.72,476.109 -644.71,4.153 7.08,9.34 368.28,-2.364 0.08,12.942 192.17,-1.239 0.43,66.598 76.67,-89.43"
         style="fill:#da314b;fill-opacity:1;fill-rule:nonzero;stroke:none"
         id="path180" />
      <path
         d="m 6381.18,1053.32 -3.56,-554.379 -693.43,4.457 3.56,554.382 693.43,-4.46"
         style="fill:#f3f2f1;fill-opacity:1;fill-rule:nonzero;stroke:none"
         id="path182" />
      <path
         d="m 5708.32,538.148 644.71,-4.148 3.12,484.58 -644.72,4.15 -3.11,-484.582"
         style="fill:#f03d5f;fill-opacity:1;fill-rule:nonzero;stroke:none"
         id="path184" />
      <path
         d="m 6353.03,534 -167.35,1.07 0.08,12.36 101.3,-0.649 0.41,63.699 65.56,-76.48"
         style="fill:#da314b;fill-opacity:1;fill-rule:nonzero;stroke:none"
         id="path186" />
      <path
         d="m 6290.62,1101.17 -3.56,-554.389 -693.43,4.449 3.55,554.39 693.44,-4.45"
         style="fill:#f3f2f1;fill-opacity:1;fill-rule:nonzero;stroke:none"
         id="path188" />
      <path
         d="m 5617.76,585.98 644.71,-4.14 3.11,484.58 -644.71,4.14 -3.11,-484.58"
         style="fill:#f03d5f;fill-opacity:1;fill-rule:nonzero;stroke:none"
         id="path190" />
      <path
         d="m 6262.47,581.84 -76.49,0.488 0.57,88.07 75.92,-88.558"
         style="fill:#da314b;fill-opacity:1;fill-rule:nonzero;stroke:none"
         id="path192" />
      <path
         d="m 6188.93,1041.61 -3.56,-554.372 -693.43,4.453 3.55,554.379 693.44,-4.46"
         style="fill:#f3f2f1;fill-opacity:1;fill-rule:nonzero;stroke:none"
         id="path194" />
      <path
         d="m 5516.06,526.441 644.72,-4.14 3.11,484.579 -644.71,4.14 -3.12,-484.579"
         style="fill:#33535f;fill-opacity:1;fill-rule:nonzero;stroke:none"
         id="path196" />
      <path
         d="m 6160.78,522.301 -644.72,4.14 227.12,299.758 138.28,-189.347 95.26,100.136 184.06,-214.687"
         style="fill:#263f48;fill-opacity:1;fill-rule:nonzero;stroke:none"
         id="path198" />
      <path
         d="m 5891.38,811.391 c -0.12,0 -0.23,0 -0.35,0 -28.04,0.179 -50.61,23.05 -50.44,51.078 0.19,27.929 22.88,50.441 50.77,50.441 0.11,0 0.22,0 0.33,0 28.03,-0.18 50.61,-23.051 50.44,-51.09 -0.19,-27.922 -22.88,-50.429 -50.75,-50.429"
         style="fill:#263f48;fill-opacity:1;fill-rule:nonzero;stroke:none"
         id="path200" />
      <path
         d="m 6589.27,304.641 h -400.34 v 535.277 h 400.34 V 304.641"
         style="fill:#17282f;fill-opacity:1;fill-rule:nonzero;stroke:none"
         id="path202" />
      <path
         d="m 5907.66,713.25 h -170.23 c -20.35,0 -36.85,16.488 -36.85,36.828 0,20.352 16.5,36.852 36.85,36.852 h 170.23 c 20.35,0 36.84,-16.5 36.84,-36.852 0,-20.34 -16.49,-36.828 -36.84,-36.828 z M 5422.19,839.918 V 304.641 h 800.7 v 535.277 h -800.7"
         style="fill:#f03d5f;fill-opacity:1;fill-rule:nonzero;stroke:none"
         id="path204" />
      <path
         d="m 4903.03,360.602 -744.57,45.578 c -4.7,10.66 -7.83,16.871 -7.83,16.871 l -201.79,-4.02 -65.67,4.02 c 0,0 -1,-2 -2.6,-5.379 l -677.4,-13.512 c -135.06,0 -277.05,-82.39 -277.05,-187.672 -1.7,-100.207 46.82,-208.97628 167.83,-206.50753 l 922.95,3.09763 922.95,-3.09763 c 121.02,-2.46875 153.01,70.50783 153.2,157.07053 14.14,161.23 -86.85,192.199 -190.02,193.551"
         style="fill:#33535f;fill-opacity:1;fill-rule:nonzero;stroke:none"
         id="path206" />
      <path
         d="m 3178.67,9.91797 c 0,0 1.5,0.17183 4.44,0.26173 3.15,0.0586 7.48,0.1406 13.05,0.2422 11.71,0.1094 28.6,0.2695 50.27,0.4687 43.95,0.1992 107.25,0.4688 185.71,0.8086 157.46,0.211 375.67,0.4922 619.72,0.8125 l -2.58,-2.74998 c -1.27,20.22658 -2.62,41.87888 -3.99,63.70708 -2.78,44.6522 -5.51,88.5622 -8.11,130.3402 l 2.29,-2.399 c -226.69,25.219 -426.99,47.52 -570.9,63.52 -71.64,8.211 -129.24,14.789 -169.17,19.359 -19.65,2.352 -34.94,4.191 -45.57,5.461 -5.02,0.648 -8.93,1.16 -11.8,1.531 -2.65,0.367 -4,0.61 -3.99,0.688 0.01,0.07 1.38,0.011 4.04,-0.199 2.88,-0.258 6.81,-0.61 11.85,-1.059 10.65,-1.07 25.99,-2.602 45.68,-4.563 39.97,-4.199 97.62,-10.269 169.33,-17.808 143.96,-15.57 344.33,-37.262 571.1,-61.801 l 2.15,-0.238 0.13,-2.172 c 2.62,-41.77 5.37,-85.688 8.17,-130.3399 1.36,-21.8203 2.71,-43.4688 3.97,-63.711 l 0.18,-2.75779 h -2.78 C 3807.81,7.64063 3589.6,7.92969 3432.14,8.14063 3353.68,8.48047 3290.38,8.75 3246.43,8.94922 c -21.67,0.19141 -38.56,0.35937 -50.27,0.46875 -5.57,0.10156 -9.9,0.18359 -13.05,0.24219 -2.94,0.08984 -4.44,0.25781 -4.44,0.25781"
         style="fill:#17282f;fill-opacity:1;fill-rule:nonzero;stroke:none"
         id="path208" />
      <path
         d="m 3368.96,274.691 c -0.57,-0.691 -9.83,6.77 -26.09,16.68 -16.23,9.938 -39.91,21.719 -67.79,29.789 -27.91,7.969 -54.24,10.578 -73.27,10.781 -19.04,0.227 -30.85,-1.171 -30.96,-0.281 -0.05,0.36 2.86,1.02 8.18,1.899 5.31,0.953 13.1,1.711 22.76,2.062 19.28,0.75 46.25,-1.312 74.73,-9.453 28.44,-8.238 52.39,-20.816 68.33,-31.688 7.99,-5.429 14.19,-10.199 18.19,-13.839 4.03,-3.582 6.15,-5.68 5.92,-5.95"
         style="fill:#17282f;fill-opacity:1;fill-rule:nonzero;stroke:none"
         id="path210" />
      <path
         d="m 4845.22,314.301 c 0.33,-1.403 -146.53,-36.91 -327.98,-79.313 -181.5,-42.41 -328.85,-75.636 -329.18,-74.238 -0.33,1.391 146.5,36.898 328,79.309 181.45,42.402 328.83,75.652 329.16,74.242"
         style="fill:#17282f;fill-opacity:1;fill-rule:nonzero;stroke:none"
         id="path212" />
      <path
         d="m 4721.04,328.648 c 0.49,-1.617 -28.37,-7.449 -57.54,-27.546 -29.42,-19.762 -45.43,-44.473 -46.75,-43.411 -0.52,0.321 2.74,6.911 10.01,16.27 7.22,9.348 18.82,21.199 33.81,31.437 15.03,10.192 30.31,16.622 41.65,19.922 11.38,3.309 18.72,3.93 18.82,3.328"
         style="fill:#17282f;fill-opacity:1;fill-rule:nonzero;stroke:none"
         id="path214" />
      <path
         d="m 4443.89,1173.97 235.85,-410.54 c 29.13,-50.692 30.91,-112.61 4.77,-164.899 -30.35,-60.691 -93.13,-98.269 -160.95,-96.363 l -362.14,10.23 -9.54,131.692 318.95,61.07 -215.04,372.18 188.1,96.63"
         style="fill:#f8a58d;fill-opacity:1;fill-rule:nonzero;stroke:none"
         id="path216" />
      <path
         d="m 3564.92,471.43 333.01,-88.2 7.23,99.848 -306.87,178.242 224.12,416.02 -188.11,96.63 -235.84,-410.54 c -57.09,-106.032 -3.75,-237.86 111.01,-274.36 l 55.45,-17.64"
         style="fill:#f8a58d;fill-opacity:1;fill-rule:nonzero;stroke:none"
         id="path218" />
      <path
         d="m 4343.76,910.379 227.61,119.871 c 0,0 -37.89,80.16 -97.51,162.6 -70.52,97.49 -179.83,165.67 -303.96,191.6 l -0.02,0.01 -261.8,-3.1 c -37.33,-4.01 -67.87,-11.13 -93.37,-21.48 l 0.19,1.01 c -142.07,-31.34 -299.74,-341.22 -299.74,-341.22 l 207.12,-109.029 4.58,-32.582 c 6.03,-42.879 24.77,-83.18 53.98,-116.09 l -60.32,-396.688 672.21,-13.91 -85.58,284.09 36.61,274.918"
         style="fill:#f03d5f;fill-opacity:1;fill-rule:nonzero;stroke:none"
         id="path220" />
      <path
         d="m 3786.94,759.82 c -0.17,-0.242 -3.9,2.25 -10.01,7.571 -6.14,5.257 -14.4,13.718 -22.86,25.55 -16.87,23.489 -31.95,63.25 -28.05,108.161 3.16,22.117 9.46,42.179 15.37,60.296 6.03,18.09 12.14,34.114 17.47,47.482 5.34,13.36 9.94,24.06 13.27,31.39 3.34,7.32 5.4,11.29 5.72,11.14 0.33,-0.14 -1.09,-4.36 -3.85,-11.9 -3.13,-8.55 -7.05,-19.23 -11.7,-31.94 -4.87,-13.492 -10.6,-29.601 -16.34,-47.652 -5.64,-18.039 -11.73,-38.109 -14.77,-59.457 -2.03,-21.199 0.81,-42.262 5.66,-60.191 4.82,-18.141 12.61,-33.34 20.27,-45.262 15.87,-23.699 30.67,-34.34 29.82,-35.188"
         style="fill:#17282f;fill-opacity:1;fill-rule:nonzero;stroke:none"
         id="path222" />
      <path
         d="m 3686.18,269.488 -37.95,442.461 h 818.82 l -54.26,-447.98 -726.61,5.519"
         style="fill:#17282f;fill-opacity:1;fill-rule:nonzero;stroke:none"
         id="path224" />
      <path
         d="m 4109.77,475.98 c 0,-28.789 -23.34,-52.14 -52.13,-52.14 -28.79,0 -52.13,23.351 -52.13,52.14 0,28.801 23.34,52.141 52.13,52.141 28.79,0 52.13,-23.34 52.13,-52.141"
         style="fill:#fafaf9;fill-opacity:1;fill-rule:nonzero;stroke:none"
         id="path226" />
      <path
         d="m 4043.31,183.039 139.02,-19.398 V 12.5195 l -127.85,3.3008 -11.17,167.2187"
         style="fill:#f8a58d;fill-opacity:1;fill-rule:nonzero;stroke:none"
         id="path228" />
      <path
         d="m 4182.33,163.641 h 62.5 c 12.17,0 24.12,-3.211 34.65,-9.289 l 32.96,-19.032 c 10.8,-6.23 45.72,-23.66 57.6,-27.48 38.01,-12.1994 101.95,-28.6408 115.41,-39.0197 38.44,-29.6601 26.76,-64.71874 5.64,-68.378894 C 4472.54,-2.76953 4182.33,12.5195 4182.33,12.5195 V 163.641"
         style="fill:#f03d5f;fill-opacity:1;fill-rule:nonzero;stroke:none"
         id="path230" />
      <path
         d="m 4285.01,25.0117 c -1.33,-0.3125 -6.12,17.1172 -6.74,39.2696 -0.7,22.1601 3.03,39.8397 4.37,39.6167 1.5,-0.199 0.14,-17.8082 0.84,-39.4566 0.6,-21.6406 3.01,-39.1406 1.53,-39.4297"
         style="fill:#17282f;fill-opacity:1;fill-rule:nonzero;stroke:none"
         id="path232" />
      <path
         d="m 4314.67,25.8398 c -1.45,0.0118 -2.48,16.1719 -2.33,36.0899 0.17,19.9101 1.46,36.0391 2.89,36.0312 1.45,-0.0117 2.48,-16.1601 2.33,-36.082 -0.17,-19.9101 -1.46,-36.0508 -2.89,-36.0391"
         style="fill:#17282f;fill-opacity:1;fill-rule:nonzero;stroke:none"
         id="path234" />
      <path
         d="m 4349.7,19.8594 c -1.44,-0.1211 -3.9,16.4414 -5.5,36.9687 -1.6,20.5508 -1.74,37.2735 -0.31,37.3907 1.44,0.1093 3.9,-16.4375 5.5,-36.9805 1.6,-20.5391 1.74,-37.2774 0.31,-37.3789"
         style="fill:#17282f;fill-opacity:1;fill-rule:nonzero;stroke:none"
         id="path236" />
      <path
         d="m 4257.96,65.25 c -0.09,-0.2812 -4.82,0.668 -12.83,4.0195 -7.95,3.3594 -19.3,9.1719 -31.22,19.3008 -2.95,2.5391 -5.95,5.3203 -8.92,8.3789 -2.93,3.0708 -6.09,6.5708 -7.97,11.2808 -1.89,4.661 -1.93,10.758 1.75,15.508 1.83,2.371 4.81,3.934 7.76,4.274 2.96,0.379 5.8,-0.153 8.43,-0.953 20.26,-6.887 37.67,-26.821 40.86,-51.3402 3.06,-24.7774 -10.26,-47.8477 -27.78,-59.379 -4.38,-2.8515 -9.01,-5.4609 -14.33,-6.42183 -2.61,-0.45703 -5.42,-0.51953 -8.16,0.39063 -2.75,0.9102 -5.07,2.9922 -6.3,5.543 -2.43,5.457 -0.27,10.6484 1.83,14.4101 2.24,3.9492 5.3,6.9375 8.04,9.6485 11.29,10.9179 22.71,16.8906 30.72,20.1211 8.1,3.2187 12.87,3.9375 12.94,3.6601 0.13,-0.4101 -4.44,-1.8008 -12.11,-5.5117 -7.61,-3.7188 -18.41,-10.0195 -28.95,-20.8789 -2.63,-2.7617 -5.32,-5.5703 -7.13,-9.0117 -1.85,-3.3399 -3.02,-7.5196 -1.47,-10.5196 1.51,-3.2109 5.51,-4.2812 9.76,-3.3515 4.21,0.8008 8.43,3.1718 12.48,5.9101 16.01,10.8008 28.11,32.2735 25.28,54.75 -2.78,22.3633 -19.03,41.0429 -37.14,47.4019 -4.4,1.54 -8.89,1.309 -11.19,-1.628 -2.38,-2.922 -2.69,-7.473 -1.26,-11.082 3.1,-7.481 10,-13.2505 15.3,-18.4302 22.89,-20.2109 42.18,-25.0781 41.61,-26.0898"
         style="fill:#17282f;fill-opacity:1;fill-rule:nonzero;stroke:none"
         id="path238" />
      <path
         d="m 4491.09,0.441406 c -0.43,0.457032 4.14,2.468754 7.61,9.500004 3.53,6.92969 2.85,19.28909 -4.09,31.51949 -6.81,12.2696 -20.95,22.918 -38.62,29.1172 -17.66,6.3633 -38.75,9.4219 -60.02,16.0508 -42.69,12.7422 -78.78,31.4101 -103.26,47.0511 -12.27,7.832 -21.74,14.832 -28.14,19.832 -6.35,5.078 -9.69,8.078 -9.47,8.359 0.22,0.289 3.98,-2.172 10.66,-6.723 6.74,-4.468 16.46,-10.968 28.88,-18.32 24.76,-14.719 60.65,-32.629 102.83,-45.2069 20.94,-6.5508 41.82,-9.6797 60.19,-16.5508 18.3,-6.6914 33.25,-18.332 40.18,-31.832 6.99,-13.2383 7.17,-26.8086 2.67,-34.21877 -2.09,-3.71094 -4.66,-5.87109 -6.44,-7.10937 -1.85,-1.16016 -2.9,-1.601566 -2.98,-1.468754"
         style="fill:#17282f;fill-opacity:1;fill-rule:nonzero;stroke:none"
         id="path240" />
      <path
         d="m 4396.43,1275.83 c 0.07,0 0.07,-0.72 -0.01,-2.13 -0.11,-1.65 -0.27,-3.7 -0.46,-6.23 -0.52,-5.84 -1.26,-13.89 -2.2,-24.17 -2.16,-21.47 -5.24,-52.19 -9.11,-90.78 l -0.24,-2.33 -2.1,1.1 c -33.49,17.64 -74.43,39.18 -120.71,63.55 l 2.86,0.8 c -19.89,-33.58 -42.04,-70.94 -65.57,-110.63 l -1.39,-2.37 -2.2,1.68 c -34.51,26.46 -71.76,55.03 -110.42,84.68 l 3.17,0.01 c -15.35,-12.03 -31.62,-24.79 -48.09,-37.7 -22.27,-17.43 -44.16,-34.58 -65.57,-51.34 l -2.4,-1.88 -1.45,2.68 c -21.77,40.27 -42.7,79 -62.47,115.55 l 3.13,-1.05 c -48.14,-21.46 -92.62,-41.27 -132.45,-59.03 l -2.43,-1.08 -0.45,2.61 c -7.71,45.41 -14.41,84.91 -19.99,117.81 l 2.04,-1.14 c -32.29,-12.32 -57.92,-22.09 -75.84,-28.93 -8.57,-3.17 -15.28,-5.66 -20.18,-7.48 -2.11,-0.73 -3.83,-1.33 -5.22,-1.82 -1.18,-0.39 -1.8,-0.55 -1.83,-0.48 -0.03,0.05 0.54,0.36 1.67,0.87 1.37,0.59 3.03,1.31 5.08,2.2 4.82,1.99 11.45,4.73 19.88,8.21 17.82,7.14 43.26,17.37 75.33,30.23 l 1.71,0.69 0.34,-1.83 c 5.88,-32.85 12.94,-72.29 21.07,-117.62 l -2.87,1.52 c 39.74,17.95 84.13,38 132.16,59.69 l 2.04,0.93 1.08,-1.98 c 19.85,-36.52 40.87,-75.2 62.73,-115.41 l -3.86,0.8 c 21.4,16.77 43.28,33.93 65.54,51.37 16.48,12.91 32.76,25.67 48.11,37.69 l 1.58,1.24 1.6,-1.23 c 38.6,-29.72 75.79,-58.36 110.25,-84.9 l -3.59,-0.69 c 23.7,39.59 46.01,76.85 66.06,110.33 l 1.06,1.77 1.8,-0.96 c 46.09,-24.75 86.84,-46.64 120.19,-64.56 l -2.33,-1.23 c 4.49,38.53 8.08,69.19 10.58,90.62 1.29,10.25 2.3,18.27 3.04,24.09 0.36,2.51 0.65,4.54 0.88,6.18 0.23,1.39 0.38,2.09 0.45,2.08"
         style="fill:#f3f2f1;fill-opacity:1;fill-rule:nonzero;stroke:none"
         id="path242" />
      <path
         d="m 4493.6,1164.51 c 0.08,-0.02 -0.11,-1.01 -0.55,-2.92 -0.53,-2.16 -1.23,-4.97 -2.1,-8.5 -2.03,-7.75 -4.9,-18.69 -8.56,-32.72 -7.74,-28.76 -18.87,-70.08 -32.75,-121.671 l -0.54,-1.969 -1.86,0.891 c -40.1,19.259 -87.92,42.199 -141.05,67.709 l 2.76,0.72 c -36.02,-51.39 -76.09,-108.519 -118.82,-169.46 l -1.74,-2.488 -2.13,2.168 c -36.28,36.769 -74.69,75.699 -114.2,115.74 -8.04,8.15 -16.04,16.26 -23.97,24.31 l 3.24,-0.38 c -53.55,-33.57 -105.18,-65.952 -153.89,-96.491 l -2.2,-1.379 -1.27,2.258 C 3864.25,992.82 3836.4,1041.99 3811,1086.84 l 2.61,-0.98 c -60.85,-20.94 -114.32,-39.35 -158.23,-54.46 l -1.5,-0.53 -0.52,1.5 c -14.98,43.46 -26.87,77.92 -35.11,101.82 -3.91,11.61 -6.94,20.65 -9.1,27.08 -0.93,2.89 -1.66,5.2 -2.24,6.99 -0.48,1.59 -0.69,2.4 -0.61,2.43 0.07,0.02 0.42,-0.75 1.03,-2.28 0.68,-1.76 1.55,-4.01 2.64,-6.85 2.35,-6.36 5.65,-15.31 9.88,-26.8 8.58,-23.79 20.92,-58.09 36.5,-101.34 l -2.02,0.97 c 43.8,15.42 97.15,34.21 157.85,55.58 l 1.7,0.6 0.9,-1.58 c 25.57,-44.77 53.59,-93.842 83.5,-146.22 l -3.47,0.878 c 48.66,30.602 100.25,63.052 153.75,96.702 l 1.77,1.11 1.47,-1.49 c 7.93,-8.04 15.93,-16.15 23.97,-24.31 39.47,-40.07 77.85,-79.039 114.09,-115.832 l -3.87,-0.316 c 42.92,60.808 83.16,117.808 119.35,169.078 l 1.08,1.53 1.69,-0.82 c 52.97,-25.84 100.63,-49.1 140.62,-68.61 l -2.38,-1.081 c 14.52,51.411 26.16,92.591 34.25,121.261 4.05,13.92 7.2,24.79 9.43,32.47 1.06,3.49 1.9,6.25 2.55,8.37 0.6,1.88 0.94,2.82 1.02,2.8"
         style="fill:#f3f2f1;fill-opacity:1;fill-rule:nonzero;stroke:none"
         id="path244" />
      <path
         d="m 4392.73,1862.12 c -39.97,-4.45 -81.59,8.68 -111.77,35.28 36.43,-18.39 84.97,6.84 97.78,45.59 12.81,38.74 2.3,110.83 -29.5,136.4 -30.27,24.31 -72.23,33.63 -109.73,23.59 -37.5,-10.04 -77.25,-67.05 -89.51,-103.89 l 0.7,-1.12 c -5.76,2.3 -11.58,4.45 -17.43,6.42 -41.53,13.94 -85.92,20.69 -129.43,15.65 -43.53,-5.04 -86.15,-22.33 -118.31,-52.09 l 254.28,-408.7 c 46.18,4.07 87.1,35.22 111.3,74.77 24.2,39.55 33.49,86.59 35.77,132.91 0.57,11.61 0.54,23.36 0.06,35.08 27.26,-4.37 54.52,-8.75 81.78,-13.14 -14.6,19.64 -33.21,36.28 -54.37,48.6 27.61,-10.52 61.77,0.22 78.38,24.65"
         style="fill:#17282f;fill-opacity:1;fill-rule:nonzero;stroke:none"
         id="path246" />
      <path
         d="m 4071.32,1227.81 c 68.97,1.48 124.33,57.39 125.13,126.37 l 5.91,508.48 c 0.41,21.01 -15.32,38.84 -36.21,41.05 l -214.77,54.28 c -68.78,7.28 -114.53,-77.41 -118.87,-146.44 -4.84,-76.69 -7.71,-170.51 1.37,-227.74 18.28,-115.06 106.47,-129.71 106.47,-129.71 0.02,0.31 0.07,-44.52 0.33,-99.05 0.34,-71.45 59.2,-128.79 130.64,-127.24"
         style="fill:#f8a58d;fill-opacity:1;fill-rule:nonzero;stroke:none"
         id="path248" />
      <path
         d="m 3877.13,1737.06 c -0.28,-7.79 6.09,-14.44 14.23,-14.88 8.12,-0.44 14.94,5.51 15.21,13.3 0.27,7.79 -6.09,14.46 -14.21,14.9 -8.13,0.44 -14.96,-5.52 -15.23,-13.32"
         style="fill:#17282f;fill-opacity:1;fill-rule:nonzero;stroke:none"
         id="path250" />
      <path
         d="m 3852.86,1762.75 c 1.83,-1.94 13.01,6.34 28.89,6.3 15.87,0.18 27.52,-7.98 29.23,-6.04 0.85,0.86 -1.01,4.34 -6.08,8.03 -5,3.68 -13.52,7.25 -23.41,7.22 -9.89,-0.06 -18.21,-3.71 -23,-7.43 -4.88,-3.75 -6.53,-7.22 -5.63,-8.08"
         style="fill:#17282f;fill-opacity:1;fill-rule:nonzero;stroke:none"
         id="path252" />
      <path
         d="m 4028.19,1737.06 c -0.27,-7.79 6.1,-14.44 14.23,-14.88 8.12,-0.44 14.93,5.51 15.21,13.3 0.28,7.79 -6.1,14.46 -14.21,14.9 -8.14,0.44 -14.96,-5.52 -15.23,-13.32"
         style="fill:#17282f;fill-opacity:1;fill-rule:nonzero;stroke:none"
         id="path254" />
      <path
         d="m 4008.94,1759.78 c 1.84,-1.93 13.03,6.35 28.9,6.31 15.86,0.18 27.52,-7.99 29.24,-6.05 0.85,0.87 -1,4.34 -6.1,8.03 -4.99,3.68 -13.5,7.27 -23.39,7.22 -9.9,-0.05 -18.22,-3.7 -23,-7.43 -4.88,-3.74 -6.54,-7.22 -5.65,-8.08"
         style="fill:#17282f;fill-opacity:1;fill-rule:nonzero;stroke:none"
         id="path256" />
      <path
         d="m 3951.32,1642.01 c 0.07,0.91 -9.8,2.61 -25.79,4.66 -4.06,0.42 -7.9,1.22 -8.58,3.99 -0.96,2.94 0.74,7.3 2.71,12.02 3.81,9.81 7.8,20.1 11.99,30.88 16.65,43.95 28.71,80.11 26.93,80.76 -1.78,0.65 -16.72,-34.44 -33.37,-78.41 -4,-10.84 -7.84,-21.17 -11.48,-31.05 -1.53,-4.61 -4.18,-9.85 -2.11,-15.92 1.09,-3.03 4.07,-5.23 6.67,-5.93 2.6,-0.79 4.88,-0.84 6.88,-0.96 16.11,-0.87 26.09,-0.93 26.15,-0.04"
         style="fill:#17282f;fill-opacity:1;fill-rule:nonzero;stroke:none"
         id="path258" />
      <path
         d="m 3940.35,1454.1 c 0,0 77.41,-4.99 154.1,41.12 0,0 -37.39,-79.04 -152.55,-68.28 l -1.55,27.16"
         style="fill:#f68260;fill-opacity:1;fill-rule:nonzero;stroke:none"
         id="path260" />
      <path
         d="m 3958.04,1603.74 c 5.71,7.56 15.71,11.7 25.65,10.63 6.88,-0.73 13.85,-4.06 18.04,-9.67 4.18,-5.61 5.06,-13.58 1.26,-18.93 -4.29,-6.03 -13.25,-7.42 -20.82,-5.27 -7.58,2.16 -14.11,7.15 -20.3,12.12 -1.72,1.38 -3.46,2.81 -4.54,4.7 -1.06,1.88 -1.3,4.34 0.03,5.91"
         style="fill:#f68260;fill-opacity:1;fill-rule:nonzero;stroke:none"
         id="path262" />
      <path
         d="m 3998.05,1631.03 c -2.58,0.15 -2.61,-17.08 -17.37,-29.32 -14.72,-12.27 -33.09,-10.34 -33.23,-12.74 -0.24,-1.09 4.09,-3.35 11.85,-3.57 7.6,-0.25 18.71,2.19 27.74,9.67 8.99,7.5 12.87,17.51 13.46,24.59 0.65,7.2 -1.27,11.47 -2.45,11.37"
         style="fill:#17282f;fill-opacity:1;fill-rule:nonzero;stroke:none"
         id="path264" />
      <path
         d="m 4001.8,1787.58 c 1.57,-4.32 17.43,-2.27 36.05,-4.51 18.68,-1.88 33.7,-7.33 36.17,-3.46 1.11,1.86 -1.51,5.91 -7.59,10.1 -6.01,4.17 -15.62,8.13 -26.8,9.38 -11.19,1.23 -21.43,-0.55 -28.22,-3.32 -6.83,-2.75 -10.28,-6.14 -9.61,-8.19"
         style="fill:#17282f;fill-opacity:1;fill-rule:nonzero;stroke:none"
         id="path266" />
      <path
         d="m 3855.08,1792.04 c 2.79,-3.61 13.73,0.14 26.88,0.32 13.15,0.63 24.3,-2.43 26.86,1.34 1.12,1.83 -0.63,5.44 -5.5,8.86 -4.8,3.4 -12.81,6.18 -21.86,5.91 -9.03,-0.28 -16.87,-3.55 -21.44,-7.25 -4.65,-3.71 -6.17,-7.42 -4.94,-9.18"
         style="fill:#17282f;fill-opacity:1;fill-rule:nonzero;stroke:none"
         id="path268" />
      <path
         d="m 4189.62,1719.66 c 8.71,6.05 20.91,3.81 30.09,-1.5 21.14,-12.23 31.65,-40.19 23.79,-63.31 -7.84,-23.13 -33.2,-38.92 -57.42,-35.76"
         style="fill:#f8a58d;fill-opacity:1;fill-rule:nonzero;stroke:none"
         id="path270" />
      <path
         d="m 4197.65,1653.41 c 0.34,0.82 4.48,-0.98 10.02,1.57 5.48,2.17 10.45,10.26 9.88,19.66 -0.32,9.54 -6.49,16.38 -12.28,18.46 -5.75,2.35 -9.99,1.2 -10.23,2.09 -0.4,0.57 3.91,3.62 11.51,1.92 3.65,-0.85 7.92,-3.03 11.24,-7.01 3.3,-3.92 5.44,-9.36 5.71,-15.15 0.84,-11.6 -6.45,-22.12 -14.39,-23.93 -7.83,-2.06 -12.07,1.93 -11.46,2.39"
         style="fill:#f68260;fill-opacity:1;fill-rule:nonzero;stroke:none"
         id="path272" />
      <path
         d="m 4229.1,1630.12 c 0.15,0.18 1.98,-1.12 5.27,-3.72 3.85,-3.14 8.52,-6.94 14.1,-11.5 12.73,-10.82 29.62,-25.17 49.65,-42.18 l 1.67,-1.43 -1.41,-1.69 c -18.49,-22.19 -39.08,-50 -62.24,-79.04 -5.24,-6.55 -10.48,-12.97 -15.57,-18.96 l -4.25,-5.01 -0.3,6.56 c -2.09,46.85 -3.7,88.33 -4.62,118.09 -0.34,14.17 -0.62,25.92 -0.84,35.09 -0.09,8.24 0.01,12.76 0.35,12.78 0.33,0.01 0.86,-4.48 1.53,-12.69 0.62,-9.15 1.44,-20.88 2.41,-35.01 1.84,-29.73 4.07,-71.17 6.34,-118.02 l -4.55,1.55 c 4.94,6.04 10.15,12.41 15.44,18.87 23.07,28.95 43.92,56.61 62.94,78.64 l 0.25,-3.11 c -19.54,17.59 -36.03,32.42 -48.46,43.59 -5.27,4.93 -9.66,9.05 -13.31,12.44 -3.01,2.93 -4.55,4.57 -4.4,4.75"
         style="fill:#33535f;fill-opacity:1;fill-rule:nonzero;stroke:none"
         id="path274" />
      <path
         d="m 3996.41,2008.29 c -28.15,-1.17 -56.54,-2.37 -83.89,-9.17 -27.35,-6.79 -53.94,-19.66 -72.54,-40.84 -18.6,-21.17 -28.09,-51.46 -20.04,-78.46 8.04,-27.01 35.77,-48.18 63.7,-44.44 21.21,2.85 41.55,18.55 62.02,12.31 19.34,-5.89 29.99,-29.49 49.88,-33.17 19.62,-3.63 37.09,14 56.98,15.72 21.94,1.9 40.98,-16.11 50.75,-35.84 9.77,-19.74 13.47,-42.04 23.27,-61.76 6.27,-12.6 16.02,-24.69 29.64,-28.2 12.51,-3.24 26.12,1.6 35.87,10.08 9.75,8.49 16.13,20.19 21.01,32.16 20.72,50.85 16.24,111.29 -11.76,158.53 -28,47.24 -78.87,80.19 -133.43,86.42"
         style="fill:#17282f;fill-opacity:1;fill-rule:nonzero;stroke:none"
         id="path276" />
      <path
         d="m 4276.78,1886.09 c -0.9,-0.27 -3.58,9.27 -10.64,23.36 -7,14.08 -19.25,32.36 -37.02,48.49 -17.85,16.06 -37.28,26.39 -51.99,31.94 -14.73,5.6 -24.49,7.3 -24.32,8.22 0.06,0.35 2.53,0.19 6.99,-0.39 4.48,-0.49 10.86,-1.95 18.55,-4.37 15.39,-4.76 35.82,-14.94 54.27,-31.54 18.35,-16.66 30.54,-35.96 36.85,-50.78 3.18,-7.4 5.27,-13.61 6.22,-18.02 1.04,-4.37 1.44,-6.82 1.09,-6.91"
         style="fill:#f03d5f;fill-opacity:1;fill-rule:nonzero;stroke:none"
         id="path278" />
      <path
         d="m 4364.79,2054.63 c -0.45,-0.92 -10.08,5.41 -27.71,8.6 -17.37,3.32 -43.11,1.98 -67.48,-10.16 -24.4,-12.23 -41.58,-31.03 -52.16,-45.38 -10.67,-14.49 -15.65,-24.63 -16.45,-24.22 -0.3,0.15 0.61,2.83 2.74,7.48 2.14,4.65 5.62,11.2 10.69,18.86 10.01,15.17 27.35,35.12 52.85,47.92 25.58,12.75 52.68,13.5 70.55,9.1 9.01,-2.13 15.96,-5.08 20.43,-7.62 4.49,-2.52 6.7,-4.32 6.54,-4.58"
         style="fill:#33535f;fill-opacity:1;fill-rule:nonzero;stroke:none"
         id="path280" />
      <path
         d="m 4254.17,1919.45 c 0.58,0.01 1.52,-9.05 0.17,-23.67 -1.3,-14.59 -5.5,-34.68 -14.37,-55.34 -8.94,-20.63 -20.67,-37.49 -30.37,-48.45 -9.71,-11.02 -16.95,-16.56 -17.34,-16.13 -1.35,1.12 25.7,25.97 42.92,66.64 17.74,40.43 17.24,77.17 18.99,76.95"
         style="fill:#33535f;fill-opacity:1;fill-rule:nonzero;stroke:none"
         id="path282" />
      <path
         d="m 4257.49,1917 c 0.34,0.1 1.32,-2.23 2.81,-6.6 1.57,-4.32 3.16,-10.83 4.5,-18.96 2.74,-16.24 3.05,-39.54 -3.1,-64.13 -6.26,-24.57 -17.61,-44.92 -27.74,-57.92 -5.04,-6.53 -9.53,-11.49 -12.97,-14.55 -3.37,-3.13 -5.35,-4.72 -5.6,-4.47 -0.66,0.66 6.47,7.86 15.58,21.18 9.16,13.26 19.59,33.2 25.68,57.04 5.97,23.84 6.25,46.36 4.5,62.37 -1.7,16.05 -4.55,25.78 -3.66,26.04"
         style="fill:#33535f;fill-opacity:1;fill-rule:nonzero;stroke:none"
         id="path284" />
      <path
         d="m 4560.08,1890.77 c -29.07,-9.17 -41.65,-50.59 -22.61,-74.38 19.04,-23.8 62.23,-20.58 77.53,5.77 15.31,26.36 -3.28,65.46 -33.38,70.22"
         style="fill:#e7e8e5;fill-opacity:1;fill-rule:nonzero;stroke:none"
         id="path286" />
      <path
         d="m 4695.27,2087.24 c -33.34,-10.52 -47.79,-58.05 -25.95,-85.34 21.86,-27.3 71.39,-23.61 88.95,6.63 17.57,30.22 -3.76,75.09 -38.29,80.55"
         style="fill:#e7e8e5;fill-opacity:1;fill-rule:nonzero;stroke:none"
         id="path288" />
      <path
         d="m 4984,2953.28 c -90.47,7.65 -181.97,-12.55 -244,-78.84 -62.02,-66.29 -91.6,-161.63 -77.98,-251.39 -96.22,-39.98 -148.68,-162.33 -111.3,-259.59 37.37,-97.27 158.28,-153 256.51,-118.25 44.14,-111.88 150.16,-196.97 268.93,-215.88 118.78,-18.92 245.98,29.06 322.68,121.7 94.37,-21.33 200.28,-19.93 279.57,35.52 79.28,55.44 115.15,177.45 54.74,253.02 108.71,26.47 163.96,162.23 131.71,269.38 -32.24,107.14 -128.74,184.02 -231.81,227.56 -68.12,28.77 -153.05,43.8 -211.17,-1.93 -46.52,71.58 -128.83,118.55 -214.12,122.19 -85.28,3.64 -171.31,-36.14 -223.76,-103.49"
         style="fill:#f3f2f1;fill-opacity:1;fill-rule:nonzero;stroke:none"
         id="path290" />
      <path
         d="m 4984,2953.28 c 0,0 1.79,2.41 5.48,6.99 3.58,4.66 9.46,11.17 17.55,19.36 16.34,16.03 42.93,38.46 83.55,56.06 20.24,8.7 43.88,16.19 70.61,19.98 26.68,3.55 56.48,3.83 87.5,-2.68 31.02,-6.08 63.12,-18.65 93.6,-37.87 30.26,-19.46 58.97,-45.87 81.07,-79.57 l -2.56,0.42 c 23.38,18.16 53.87,28.57 85.58,29.37 31.74,1.15 64.46,-4.8 96.42,-15.38 32,-10.66 63.63,-25.32 94.44,-43.31 30.76,-18.04 60.76,-39.62 87.56,-66.06 27.04,-26.11 50.51,-57.46 67.64,-93.02 8.19,-17.95 15.02,-36.75 19.26,-56.55 3.55,-19.83 5.68,-40.27 4.04,-60.81 -2.64,-40.94 -15.24,-82.42 -39.07,-117.91 -12.08,-17.49 -26.25,-34.18 -43.96,-46.95 -17.52,-12.89 -37.54,-22.6 -58.96,-28.21 l 1.36,3.99 c 13.01,-16.56 22.24,-36.23 26.85,-57.09 4.68,-20.88 4.93,-42.78 1.57,-64.18 -6.79,-42.88 -28.15,-83.79 -59.75,-115.28 -32.03,-31.53 -74.71,-51.04 -119.04,-60.81 -44.58,-9.75 -91.21,-9.95 -137.05,-4.04 -16.73,2.04 -33.22,5.3 -49.43,8.76 l 2.58,0.88 c -83.05,-99.57 -218.89,-144.28 -337.9,-120.05 -59.58,11.95 -114.21,40.08 -158.56,77.8 -44.42,37.76 -78.81,85.37 -99.37,137.21 l 3.02,-1.37 c -56.92,-19.65 -119.08,-9.59 -167.87,17.55 -49.29,26.87 -86.22,73.09 -98.22,124.48 -12.24,51.37 -2.27,104.22 20.32,146.73 22.66,42.75 58.47,75.88 99.08,93 l -1.1,-1.93 c -6.14,41.64 -2.81,82.17 6.23,118.75 9.47,36.54 24.57,69.24 43.15,96.72 9.12,13.89 19.52,26.13 29.87,37.51 10.83,10.96 21.77,21.04 33.47,29.12 22.95,16.77 46.96,27.34 68.95,34.65 44.37,14.34 80.93,15.58 105.11,15.73 24.34,-0.25 36.98,-1.99 36.98,-1.99 0,0 -3.19,0.03 -9.39,0.35 -6.2,0.41 -15.45,0.64 -27.59,0.62 -24.11,-0.48 -60.53,-2.04 -104.48,-16.58 -21.8,-7.4 -45.53,-18.02 -68.17,-34.74 -11.54,-8.04 -22.3,-18.08 -32.97,-28.96 -10.2,-11.33 -20.45,-23.49 -29.42,-37.28 -18.29,-27.31 -33.12,-59.74 -42.37,-95.94 -8.82,-36.23 -11.99,-76.32 -5.8,-117.43 l 0.2,-1.38 -1.3,-0.55 c -39.71,-16.88 -74.78,-49.46 -96.95,-91.51 -22.11,-41.82 -31.74,-93.75 -19.67,-143.88 11.81,-50.12 47.92,-95.24 96.28,-121.51 47.86,-26.55 108.73,-36.22 164.06,-17.03 l 2.17,0.75 0.85,-2.12 c 20.32,-51.05 54.28,-97.99 98.14,-135.2 43.78,-37.18 97.68,-64.86 156.34,-76.59 117.13,-23.83 251.21,20.37 332.9,118.39 l 1.01,1.22 1.57,-0.34 c 16.06,-3.42 32.39,-6.65 48.96,-8.67 45.37,-5.85 91.42,-5.64 135.25,3.94 43.55,9.55 85.47,28.82 116.54,59.42 30.8,30.64 51.72,70.66 58.34,112.41 6.9,41.55 -1.83,85.39 -27.3,117.33 l -2.4,3.01 3.76,0.99 c 20.76,5.44 40.16,14.82 57.19,27.32 17.21,12.38 31.03,28.64 42.85,45.71 23.33,34.64 35.77,75.34 38.39,115.47 1.64,20.15 -0.44,40.17 -3.88,59.58 -4.11,19.32 -10.8,37.87 -18.84,55.53 -16.8,35 -39.87,65.97 -66.57,91.82 -26.45,26.19 -56.14,47.62 -86.59,65.57 -30.5,17.91 -61.95,32.55 -93.56,43.16 -31.61,10.54 -63.89,16.47 -95.01,15.41 -31.13,-0.71 -60.77,-10.79 -83.56,-28.37 l -1.53,-1.17 -1.04,1.6 c -21.7,33.3 -49.97,59.49 -79.82,78.83 -30.06,19.11 -61.78,31.67 -92.46,37.82 -30.66,6.57 -60.15,6.44 -86.62,3.05 -26.51,-3.61 -50.02,-10.9 -70.17,-19.4 -40.46,-17.2 -67.11,-39.27 -83.62,-55.01 -8.17,-8.04 -14.15,-14.43 -17.86,-18.98 -3.81,-4.46 -5.86,-6.66 -5.86,-6.66"
         style="fill:#17282f;fill-opacity:1;fill-rule:nonzero;stroke:none"
         id="path292" />
      <path
         d="m 5602.36,2641.56 c 0,-4.32 -177.33,-7.81 -396.03,-7.81 -218.78,0 -396.08,3.49 -396.08,7.81 0,4.31 177.3,7.81 396.08,7.81 218.7,0 396.03,-3.5 396.03,-7.81"
         style="fill:#33535f;fill-opacity:1;fill-rule:nonzero;stroke:none"
         id="path294" />
      <path
         d="m 5602.36,2555.62 c 0,-4.31 -177.33,-7.81 -396.03,-7.81 -218.78,0 -396.08,3.5 -396.08,7.81 0,4.32 177.3,7.82 396.08,7.82 218.7,0 396.03,-3.5 396.03,-7.82"
         style="fill:#33535f;fill-opacity:1;fill-rule:nonzero;stroke:none"
         id="path296" />
      <path
         d="m 5602.36,2469.69 c 0,-4.32 -177.33,-7.81 -396.03,-7.81 -218.78,0 -396.08,3.49 -396.08,7.81 0,4.31 177.3,7.81 396.08,7.81 218.7,0 396.03,-3.5 396.03,-7.81"
         style="fill:#33535f;fill-opacity:1;fill-rule:nonzero;stroke:none"
         id="path298" />
      <path
         d="m 5602.36,2383.75 c 0,-4.31 -177.33,-7.81 -396.03,-7.81 -218.78,0 -396.08,3.5 -396.08,7.81 0,4.31 177.3,7.81 396.08,7.81 218.7,0 396.03,-3.5 396.03,-7.81"
         style="fill:#33535f;fill-opacity:1;fill-rule:nonzero;stroke:none"
         id="path300" />
    </g>
  </g>
</svg>
